# xmcd
#
# Track frame offsets: 
#        183
#        14068
#        24373
#        36833
#        49393
#        61468
#        72425
#        83033
#        94943
#        104938
#        115528
#        126680
#        139145
#        151148
#        162758
#        175908
#        188485
#        198790
#
# Disc length: 2789 seconds
#
# Revision: 4
# Processed by: cddbd v1.5.2PL0 Copyright (c) Steve Scherf et al.
# Submitted via: ExactAudioCopyFreeDBPlugin 1.0
#
DISCID=fc0ae312
DTITLE=Jimmy Reed - You Don't Have To Go - The Blues Collection 18
DYEAR=1995
DGENRE=Blues
TTITLE0=You don't have to go
TTITLE1=I ain't got you
TTITLE2=Can't stand to see you go
TTITLE3=You got me dizzy
TTITLE4=Honest I do
TTITLE5=Down in Virginia
TTITLE6=Too much
TTITLE7=I'm gonna get my baby
TTITLE8=I wanna be loved
TTITLE9=Baby, what you want me to do?
TTITLE10=Hush hush
TTITLE11=Big boss man
TTITLE12=Bright lights, big city
TTITLE13=Down the road
TTITLE14=I'm going upside your head
TTITLE15=Shame, shame, shame
TTITLE16=Take out some insurance
TTITLE17=Found love
EXTD=
EXTT0=
EXTT1=
EXTT2=
EXTT3=
EXTT4=
EXTT5=
EXTT6=
EXTT7=
EXTT8=
EXTT9=
EXTT10=
EXTT11=
EXTT12=
EXTT13=
EXTT14=
EXTT15=
EXTT16=
EXTT17=
PLAYORDER=
